<mxfile host="app.diagrams.net" modified="2022-04-01T14:03:24.898Z" agent="5.0 (Windows NT 10.0; Win64; x64) AppleWebKit/537.36 (KHTML, like Gecko) Chrome/98.0.4758.109 Safari/537.36 OPR/84.0.4316.52" etag="JWmPUqnCtmqLmlz-cciI" version="17.4.0" type="github">
  <diagram id="C5RBs43oDa-KdzZeNtuy" name="Page-1">
    <mxGraphModel dx="1381" dy="787" grid="1" gridSize="10" guides="1" tooltips="1" connect="1" arrows="1" fold="1" page="1" pageScale="1" pageWidth="827" pageHeight="1169" background="#F1FAEE" math="0" shadow="0">
      <root>
        <mxCell id="WIyWlLk6GJQsqaUBKTNV-0" />
        <mxCell id="WIyWlLk6GJQsqaUBKTNV-1" parent="WIyWlLk6GJQsqaUBKTNV-0" />
        <mxCell id="GDNhw22Fr7uO_iwuyQjB-0" value="&lt;font style=&quot;font-size: 16px&quot;&gt;University&lt;/font&gt;" style="rounded=0;whiteSpace=wrap;html=1;fillColor=#A8DADC;strokeColor=#457B9D;fontColor=#1D3557;" vertex="1" parent="WIyWlLk6GJQsqaUBKTNV-1">
          <mxGeometry x="390" y="60" width="120" height="60" as="geometry" />
        </mxCell>
        <mxCell id="GDNhw22Fr7uO_iwuyQjB-3" value="classroom" style="rounded=0;whiteSpace=wrap;html=1;fontSize=16;fillColor=#A8DADC;strokeColor=#457B9D;fontColor=#1D3557;" vertex="1" parent="WIyWlLk6GJQsqaUBKTNV-1">
          <mxGeometry x="220" y="280" width="120" height="60" as="geometry" />
        </mxCell>
        <mxCell id="GDNhw22Fr7uO_iwuyQjB-4" value="Work Office" style="rounded=0;whiteSpace=wrap;html=1;fontSize=16;fillColor=#A8DADC;strokeColor=#457B9D;fontColor=#1D3557;" vertex="1" parent="WIyWlLk6GJQsqaUBKTNV-1">
          <mxGeometry x="50" y="190" width="120" height="60" as="geometry" />
        </mxCell>
        <mxCell id="GDNhw22Fr7uO_iwuyQjB-5" value="Departments" style="rounded=0;whiteSpace=wrap;html=1;fontSize=16;fillColor=#A8DADC;strokeColor=#457B9D;fontColor=#1D3557;" vertex="1" parent="WIyWlLk6GJQsqaUBKTNV-1">
          <mxGeometry x="650" y="190" width="120" height="60" as="geometry" />
        </mxCell>
        <mxCell id="GDNhw22Fr7uO_iwuyQjB-15" value="Office" style="html=1;rounded=0;sketch=0;fontColor=#1D3557;strokeColor=#457B9D;fillColor=#A8DADC;" vertex="1" parent="WIyWlLk6GJQsqaUBKTNV-1">
          <mxGeometry x="670" y="430" width="110" height="50" as="geometry" />
        </mxCell>
        <mxCell id="GDNhw22Fr7uO_iwuyQjB-19" value="Workers" style="html=1;rounded=0;sketch=0;fontColor=#1D3557;strokeColor=#457B9D;fillColor=#A8DADC;" vertex="1" parent="WIyWlLk6GJQsqaUBKTNV-1">
          <mxGeometry x="430" y="290" width="110" height="50" as="geometry" />
        </mxCell>
        <mxCell id="GDNhw22Fr7uO_iwuyQjB-41" style="edgeStyle=orthogonalEdgeStyle;rounded=1;sketch=0;orthogonalLoop=1;jettySize=auto;html=1;entryX=0.75;entryY=1;entryDx=0;entryDy=0;fontSize=17;fontColor=#1D3557;startArrow=none;startFill=0;endArrow=none;endFill=0;strokeColor=default;strokeWidth=1;fillColor=#A8DADC;" edge="1" parent="WIyWlLk6GJQsqaUBKTNV-1" source="GDNhw22Fr7uO_iwuyQjB-23" target="GDNhw22Fr7uO_iwuyQjB-4">
          <mxGeometry relative="1" as="geometry" />
        </mxCell>
        <mxCell id="GDNhw22Fr7uO_iwuyQjB-42" style="edgeStyle=orthogonalEdgeStyle;rounded=1;sketch=0;orthogonalLoop=1;jettySize=auto;html=1;exitX=1;exitY=0.5;exitDx=0;exitDy=0;entryX=0;entryY=0.25;entryDx=0;entryDy=0;fontSize=17;fontColor=#1D3557;startArrow=none;startFill=0;endArrow=none;endFill=0;strokeColor=default;strokeWidth=1;fillColor=#A8DADC;verticalAlign=middle;labelPosition=center;verticalLabelPosition=middle;align=center;" edge="1" parent="WIyWlLk6GJQsqaUBKTNV-1" source="GDNhw22Fr7uO_iwuyQjB-23" target="GDNhw22Fr7uO_iwuyQjB-15">
          <mxGeometry relative="1" as="geometry" />
        </mxCell>
        <mxCell id="GDNhw22Fr7uO_iwuyQjB-23" value="Professor" style="html=1;rounded=0;sketch=0;fontSize=22;fontColor=#1D3557;strokeColor=#457B9D;fillColor=#A8DADC;" vertex="1" parent="WIyWlLk6GJQsqaUBKTNV-1">
          <mxGeometry x="270" y="440" width="110" height="50" as="geometry" />
        </mxCell>
        <mxCell id="GDNhw22Fr7uO_iwuyQjB-38" style="edgeStyle=orthogonalEdgeStyle;rounded=1;sketch=0;orthogonalLoop=1;jettySize=auto;html=1;entryX=0.5;entryY=1;entryDx=0;entryDy=0;fontSize=17;fontColor=#1D3557;startArrow=diamondThin;startFill=0;endArrow=none;endFill=0;strokeColor=default;strokeWidth=1;fillColor=#A8DADC;" edge="1" parent="WIyWlLk6GJQsqaUBKTNV-1" source="GDNhw22Fr7uO_iwuyQjB-24" target="GDNhw22Fr7uO_iwuyQjB-15">
          <mxGeometry relative="1" as="geometry" />
        </mxCell>
        <mxCell id="GDNhw22Fr7uO_iwuyQjB-24" value="Staff" style="html=1;rounded=0;sketch=0;fontSize=22;fontColor=#1D3557;strokeColor=#457B9D;fillColor=#A8DADC;" vertex="1" parent="WIyWlLk6GJQsqaUBKTNV-1">
          <mxGeometry x="470" y="540" width="110" height="50" as="geometry" />
        </mxCell>
        <mxCell id="GDNhw22Fr7uO_iwuyQjB-27" value="1...*" style="endArrow=open;html=1;endSize=12;startArrow=none;startSize=14;startFill=0;edgeStyle=orthogonalEdgeStyle;align=left;verticalAlign=bottom;rounded=1;sketch=0;fontSize=17;fontColor=#1D3557;strokeColor=#457B9D;strokeWidth=1;fillColor=#A8DADC;entryX=0.25;entryY=1;entryDx=0;entryDy=0;exitX=0.445;exitY=-0.02;exitDx=0;exitDy=0;exitPerimeter=0;" edge="1" parent="WIyWlLk6GJQsqaUBKTNV-1" source="GDNhw22Fr7uO_iwuyQjB-23" target="GDNhw22Fr7uO_iwuyQjB-19">
          <mxGeometry x="-1" y="59" relative="1" as="geometry">
            <mxPoint x="330" y="390" as="sourcePoint" />
            <mxPoint x="490" y="390" as="targetPoint" />
            <mxPoint as="offset" />
          </mxGeometry>
        </mxCell>
        <mxCell id="GDNhw22Fr7uO_iwuyQjB-28" value="1...*" style="endArrow=open;html=1;endSize=12;startArrow=none;startSize=14;startFill=0;edgeStyle=orthogonalEdgeStyle;align=left;verticalAlign=bottom;rounded=1;sketch=0;fontSize=17;fontColor=#1D3557;strokeColor=#457B9D;strokeWidth=1;fillColor=#A8DADC;entryX=0.691;entryY=1.02;entryDx=0;entryDy=0;entryPerimeter=0;exitX=0.336;exitY=0.02;exitDx=0;exitDy=0;exitPerimeter=0;" edge="1" parent="WIyWlLk6GJQsqaUBKTNV-1" source="GDNhw22Fr7uO_iwuyQjB-24" target="GDNhw22Fr7uO_iwuyQjB-19">
          <mxGeometry x="-1" y="3" relative="1" as="geometry">
            <mxPoint x="506" y="490" as="sourcePoint" />
            <mxPoint x="490" y="390" as="targetPoint" />
          </mxGeometry>
        </mxCell>
        <mxCell id="GDNhw22Fr7uO_iwuyQjB-29" value="1...*" style="endArrow=open;html=1;endSize=12;startArrow=none;startSize=14;startFill=0;edgeStyle=orthogonalEdgeStyle;align=left;verticalAlign=bottom;rounded=1;sketch=0;fontSize=17;fontColor=#1D3557;strokeColor=#457B9D;strokeWidth=1;fillColor=#A8DADC;entryX=0.25;entryY=1;entryDx=0;entryDy=0;exitX=0.445;exitY=-0.02;exitDx=0;exitDy=0;exitPerimeter=0;" edge="1" parent="WIyWlLk6GJQsqaUBKTNV-1" source="GDNhw22Fr7uO_iwuyQjB-15">
          <mxGeometry x="-0.8999" y="39" relative="1" as="geometry">
            <mxPoint x="580" y="414" as="sourcePoint" />
            <mxPoint x="718.55" y="250" as="targetPoint" />
            <mxPoint as="offset" />
          </mxGeometry>
        </mxCell>
        <mxCell id="GDNhw22Fr7uO_iwuyQjB-33" value="1..*" style="endArrow=none;html=1;endSize=12;startArrow=diamondThin;startSize=14;startFill=0;edgeStyle=orthogonalEdgeStyle;align=left;verticalAlign=bottom;rounded=1;sketch=0;fontSize=15;fontColor=#1D3557;strokeColor=default;strokeWidth=1;fillColor=#A8DADC;endFill=0;exitX=0;exitY=0.5;exitDx=0;exitDy=0;entryX=0.5;entryY=0;entryDx=0;entryDy=0;" edge="1" parent="WIyWlLk6GJQsqaUBKTNV-1" source="GDNhw22Fr7uO_iwuyQjB-0" target="GDNhw22Fr7uO_iwuyQjB-4">
          <mxGeometry x="0.9474" y="-30" relative="1" as="geometry">
            <mxPoint x="270" y="80" as="sourcePoint" />
            <mxPoint x="110" y="80" as="targetPoint" />
            <mxPoint as="offset" />
          </mxGeometry>
        </mxCell>
        <mxCell id="GDNhw22Fr7uO_iwuyQjB-34" value="1...*" style="endArrow=none;html=1;endSize=12;startArrow=diamondThin;startSize=14;startFill=0;edgeStyle=orthogonalEdgeStyle;align=left;verticalAlign=bottom;rounded=1;sketch=0;fontSize=15;fontColor=#1D3557;strokeColor=default;strokeWidth=1;fillColor=#A8DADC;endFill=0;exitX=0.25;exitY=1;exitDx=0;exitDy=0;entryX=0.4;entryY=-0.017;entryDx=0;entryDy=0;entryPerimeter=0;" edge="1" parent="WIyWlLk6GJQsqaUBKTNV-1" source="GDNhw22Fr7uO_iwuyQjB-0" target="GDNhw22Fr7uO_iwuyQjB-3">
          <mxGeometry x="0.9422" y="22" relative="1" as="geometry">
            <mxPoint x="420" y="189" as="sourcePoint" />
            <mxPoint x="260" y="189" as="targetPoint" />
            <mxPoint as="offset" />
          </mxGeometry>
        </mxCell>
        <mxCell id="GDNhw22Fr7uO_iwuyQjB-35" value="1...*" style="endArrow=none;html=1;endSize=12;startArrow=diamondThin;startSize=14;startFill=0;edgeStyle=orthogonalEdgeStyle;align=left;verticalAlign=bottom;rounded=1;sketch=0;fontSize=15;fontColor=#1D3557;strokeColor=default;strokeWidth=1;fillColor=#A8DADC;endFill=0;entryX=0.409;entryY=0.02;entryDx=0;entryDy=0;entryPerimeter=0;exitX=0.75;exitY=1;exitDx=0;exitDy=0;" edge="1" parent="WIyWlLk6GJQsqaUBKTNV-1" source="GDNhw22Fr7uO_iwuyQjB-0" target="GDNhw22Fr7uO_iwuyQjB-19">
          <mxGeometry x="0.8128" y="25" relative="1" as="geometry">
            <mxPoint x="620" y="219.5" as="sourcePoint" />
            <mxPoint x="460" y="219.5" as="targetPoint" />
            <Array as="points">
              <mxPoint x="480" y="286" />
            </Array>
            <mxPoint as="offset" />
          </mxGeometry>
        </mxCell>
        <mxCell id="GDNhw22Fr7uO_iwuyQjB-36" value="1....*" style="endArrow=none;html=1;endSize=12;startArrow=diamondThin;startSize=14;startFill=0;edgeStyle=orthogonalEdgeStyle;align=left;verticalAlign=bottom;rounded=1;sketch=0;fontSize=15;fontColor=#1D3557;strokeColor=default;strokeWidth=1;fillColor=#A8DADC;endFill=0;entryX=0.5;entryY=0;entryDx=0;entryDy=0;exitX=1;exitY=0.5;exitDx=0;exitDy=0;" edge="1" parent="WIyWlLk6GJQsqaUBKTNV-1" source="GDNhw22Fr7uO_iwuyQjB-0" target="GDNhw22Fr7uO_iwuyQjB-5">
          <mxGeometry x="0.9333" y="30" relative="1" as="geometry">
            <mxPoint x="580" y="89.5" as="sourcePoint" />
            <mxPoint x="740" y="89.5" as="targetPoint" />
            <mxPoint as="offset" />
          </mxGeometry>
        </mxCell>
        <mxCell id="GDNhw22Fr7uO_iwuyQjB-40" style="edgeStyle=orthogonalEdgeStyle;rounded=1;sketch=0;orthogonalLoop=1;jettySize=auto;html=1;entryX=0.25;entryY=1;entryDx=0;entryDy=0;fontSize=17;fontColor=#1D3557;startArrow=diamondThin;startFill=0;endArrow=none;endFill=0;strokeColor=default;strokeWidth=1;fillColor=#A8DADC;" edge="1" parent="WIyWlLk6GJQsqaUBKTNV-1" source="GDNhw22Fr7uO_iwuyQjB-24" target="GDNhw22Fr7uO_iwuyQjB-4">
          <mxGeometry relative="1" as="geometry" />
        </mxCell>
      </root>
    </mxGraphModel>
  </diagram>
</mxfile>
